<svg width="46" height="46" xmlns="http://www.w3.org/2000/svg">
<circle cx="23" cy="21" r="14" fill="white"/>
<circle cx="23" cy="21" r="12" fill="#EAB308"/>
<path d="M28.6231 21.4081L23.8063 29.2537C23.4822 29.7414 23.0133 30.004 22.5316 30.004C22.3373 30.004 22.1407 29.9612 21.9516 29.8734C21.2576 29.5523 20.9215 28.7322 21.1534 27.9227L22.0567 24.0018H19.1831C18.3729 24.0018 17.6346 23.5569 17.2549 22.8411C16.8753 22.1253 16.9226 21.2633 17.3772 20.5933L22.1925 12.7462C22.6479 12.0619 23.3877 11.8211 24.0479 12.1265C24.7419 12.4476 25.078 13.2676 24.8462 14.0772L23.9421 17.9988L26.8179 18.0011C27.6275 18.0011 28.3657 18.446 28.7454 19.1618C29.1242 19.8768 29.0777 20.7388 28.6231 21.4088V21.4081Z" fill="white"/>
</svg>
