<svg width="32" height="32" viewBox="0 0 32 32" fill="none" xmlns="http://www.w3.org/2000/svg">
<path d="M24 15.1749V16.9685L8 16.9685L8 15.1749L24 15.1749Z" fill="#D10000"/>
<path d="M17 23.9998L15 23.9998L15 8L17 8L17 23.9998Z" fill="#D10000"/>
<path d="M16 0C24.8362 0.000250993 31.9998 7.16382 32 16C31.9997 24.8361 24.8361 31.9997 16 32C7.16382 31.9998 0.000251008 24.8362 0 16C0.000197965 7.16379 7.16379 0.000197953 16 0ZM15.999 2.37695C8.47567 2.3774 2.37715 8.47659 2.37695 16C2.3771 23.5234 8.47564 29.6226 15.999 29.623C23.5228 29.623 29.6229 23.5237 29.623 16C29.6228 8.47632 23.5228 2.37695 15.999 2.37695Z" fill="#D10000"/>
</svg>
