<svg width="46" height="46" xmlns="http://www.w3.org/2000/svg">
<circle cx="23" cy="21" r="14" fill="white"/>
<circle cx="23" cy="21" r="12" fill="#BF5700"/>
<path d="M20.5178 22.9209L18.733 24.7541L17.9264 23.9688L19.174 22.6875H15.25V21.5624H19.1672L17.9269 20.2811L18.7336 19.4958L20.524 21.3346C20.731 21.5416 20.848 21.824 20.848 22.1249C20.848 22.4259 20.731 22.7083 20.5184 22.9209H20.5178ZM28.75 16.613V27.75H19.75V25.3222L20.875 24.1663V26.625H22V16.4999H21.4375C21.127 16.4999 20.875 16.7525 20.875 17.0624V20.0836L19.75 18.9282V17.063C19.75 16.1326 20.5071 15.3755 21.4375 15.3755H22.1069C22.2081 15.0903 22.3769 14.8309 22.6176 14.6335C23.0108 14.3112 23.5221 14.1835 24.0188 14.2831L27.3938 14.9581C28.1791 15.115 28.75 15.8108 28.75 16.6124V16.613ZM25.375 20.9999C25.375 20.5342 24.997 20.1562 24.5312 20.1562C24.0655 20.1562 23.6875 20.5342 23.6875 20.9999C23.6875 21.4657 24.0655 21.8437 24.5312 21.8437C24.997 21.8437 25.375 21.4657 25.375 20.9999Z" fill="white"/>
</svg>
