<svg width="20" height="19" viewBox="0 0 20 19" fill="none" xmlns="http://www.w3.org/2000/svg">
<path d="M9.23899 0.870761C9.48343 0.377134 9.60575 0.130321 9.77168 0.0514569C9.91607 -0.0171523 10.0839 -0.0171523 10.2283 0.0514569C10.3943 0.130321 10.5166 0.377134 10.7611 0.870761L13.081 5.55391C13.1531 5.69964 13.1892 5.77251 13.2419 5.82908C13.2887 5.87917 13.3448 5.91976 13.4069 5.94859C13.4773 5.98115 13.5579 5.9929 13.7193 6.0164L18.9085 6.7722C19.455 6.85179 19.7282 6.89158 19.8547 7.02458C19.9647 7.14028 20.0163 7.29929 19.9954 7.4573C19.9714 7.63893 19.7736 7.83093 19.378 8.21489L15.6243 11.8578C15.5074 11.9714 15.4489 12.0283 15.4111 12.0958C15.3777 12.1555 15.3563 12.2213 15.348 12.2893C15.3386 12.366 15.3524 12.4462 15.38 12.6066L16.2658 17.7522C16.3591 18.2949 16.4058 18.5663 16.3181 18.7273C16.2417 18.8674 16.106 18.9657 15.9487 18.9948C15.7678 19.0282 15.5232 18.9 15.0342 18.6437L10.3951 16.2127C10.2505 16.137 10.1782 16.0991 10.1021 16.0842C10.0347 16.071 9.9653 16.071 9.89793 16.0842C9.82176 16.0991 9.74951 16.137 9.60501 16.2127L4.96584 18.6437C4.47676 18.9 4.23221 19.0282 4.05138 18.9948C3.89406 18.9657 3.75831 18.8674 3.68194 18.7273C3.59416 18.5663 3.64087 18.2949 3.73427 17.7522L4.61995 12.6066C4.64756 12.4462 4.66137 12.366 4.65202 12.2893C4.64375 12.2213 4.62231 12.1555 4.58889 12.0958C4.55113 12.0283 4.49263 11.9714 4.37562 11.8578L0.622057 8.21489C0.22644 7.83093 0.028632 7.63893 0.00457032 7.4573C-0.0163722 7.29929 0.0353582 7.14028 0.145376 7.02458C0.271827 6.89158 0.545045 6.85179 1.09149 6.7722L6.28074 6.0164C6.44211 5.9929 6.52281 5.98115 6.59308 5.94859C6.65529 5.91976 6.71131 5.87917 6.75802 5.82908C6.81077 5.77251 6.84686 5.69964 6.91905 5.55391L9.23899 0.870761Z" fill="#FFD600"/>
</svg>
